<?xml version="1.0" encoding="UTF-8" standalone="no" ?>
<!DOCTYPE svg PUBLIC "-//W3C//DTD SVG 1.1//EN" "http://www.w3.org/Graphics/SVG/1.1/DTD/svg11.dtd">
<svg xmlns="http://www.w3.org/2000/svg" xmlns:xlink="http://www.w3.org/1999/xlink" version="1.1" width="20" height="18" viewBox="0 0 20 18" xml:space="preserve">
<desc>Created with Fabric.js 5.3.0</desc>
<defs>
</defs>
<g transform="matrix(1 0 0 1 10 9)" id="6q88Rz3u2iNPURC6EpMo7"  >
<path style="stroke: none; stroke-width: 1; stroke-dasharray: none; stroke-linecap: butt; stroke-dashoffset: 0; stroke-linejoin: miter; stroke-miterlimit: 4; fill: rgb(5,46,107); fill-rule: evenodd; opacity: 1;"  transform=" translate(-10, -9)" d="M 0 1 C 0 0.447715 0.447716 0 1 0 L 19 0 C 19.5523 0 20 0.447715 20 1 C 20 1.55228 19.5523 2 19 2 L 1 2 C 0.447716 2 0 1.55228 0 1 Z M 0 9 C 0 8.44772 0.447716 8 1 8 L 19 8 C 19.5523 8 20 8.44772 20 9 C 20 9.55228 19.5523 10 19 10 L 1 10 C 0.447716 10 0 9.55228 0 9 Z M 1 16 C 0.447716 16 0 16.4477 0 17 C 0 17.5523 0.447716 18 1 18 L 19 18 C 19.5523 18 20 17.5523 20 17 C 20 16.4477 19.5523 16 19 16 L 1 16 Z" stroke-linecap="round" />
</g>
</svg>